<?xml version="1.0" encoding="iso-8859-1"?>
<!-- Generator: Adobe Illustrator 17.1.0, SVG Export Plug-In . SVG Version: 6.00 Build 0)  -->
<!DOCTYPE svg PUBLIC "-//W3C//DTD SVG 1.1//EN" "http://www.w3.org/Graphics/SVG/1.1/DTD/svg11.dtd">
<svg version="1.1" id="Capa_1" xmlns="http://www.w3.org/2000/svg" xmlns:xlink="http://www.w3.org/1999/xlink" x="0px" y="0px"
	 viewBox="0 0 511 511" style="enable-background:new 0 0 511 511;" xml:space="preserve">
<path d="M503.5,151.999H415v-8.5c0-4.142-3.358-7.5-7.5-7.5s-7.5,3.358-7.5,7.5v8.5h-88.5c-4.142,0-7.5,3.358-7.5,7.5
	s3.358,7.5,7.5,7.5H400v10.234c-9.29,3.138-16,11.93-16,22.266v8.5h-42.234c-3.138-9.29-11.93-16-22.266-16h-128
	c-10.336,0-19.128,6.71-22.266,16H127v-8.5c0-10.335-6.71-19.127-16-22.266v-10.234h88.5c4.142,0,7.5-3.358,7.5-7.5
	s-3.358-7.5-7.5-7.5H111v-8.5c0-4.142-3.358-7.5-7.5-7.5s-7.5,3.358-7.5,7.5v8.5H7.5c-4.142,0-7.5,3.358-7.5,7.5s3.358,7.5,7.5,7.5
	H96v10.234c-9.29,3.138-16,11.93-16,22.266v32c0,12.958,10.542,23.5,23.5,23.5s23.5-10.542,23.5-23.5v-8.5h42.234
	c3.138,9.29,11.93,16,22.266,16h8.5v25.085c-13.522,0.952-24.991,10.457-28.321,23.775l-18.035,72.14H143.5
	c-4.142,0-7.5,3.358-7.5,7.5s3.358,7.5,7.5,7.5h15.978c0.009,0,0.019,0.002,0.028,0.002c0.007,0,0.013-0.002,0.02-0.002H175.5
	c4.142,0,7.5-3.358,7.5-7.5s-3.358-7.5-7.5-7.5h-6.394l17.125-68.502c1.759-7.036,7.856-12.03,15.018-12.456
	c3.15,9.269,11.931,15.958,22.251,15.958h64c10.32,0,19.101-6.689,22.251-15.958c7.161,0.426,13.259,5.42,15.018,12.456
	l17.125,68.502H335.5c-4.142,0-7.5,3.358-7.5,7.5s3.358,7.5,7.5,7.5h15.974c0.007,0,0.013,0.002,0.02,0.002
	c0.009,0,0.019-0.002,0.028-0.002H367.5c4.142,0,7.5-3.358,7.5-7.5s-3.358-7.5-7.5-7.5h-10.144l-18.035-72.14
	c-3.329-13.319-14.799-22.823-28.321-23.775v-25.085h8.5c10.336,0,19.128-6.71,22.266-16H384v8.5c0,12.958,10.542,23.5,23.5,23.5
	s23.5-10.542,23.5-23.5v-32c0-10.335-6.71-19.127-16-22.266v-10.234h88.5c4.142,0,7.5-3.358,7.5-7.5S507.642,151.999,503.5,151.999z
	 M112,231.499c0,4.687-3.813,8.5-8.5,8.5s-8.5-3.813-8.5-8.5v-32c0-4.687,3.813-8.5,8.5-8.5s8.5,3.813,8.5,8.5V231.499z
	 M319.5,223.999h-16h-16c-4.142,0-7.5,3.358-7.5,7.5s3.358,7.5,7.5,7.5h8.5v32.5c0,4.687-3.813,8.5-8.5,8.5h-64
	c-4.687,0-8.5-3.813-8.5-8.5v-32.5h40.5c4.142,0,7.5-3.358,7.5-7.5s-3.358-7.5-7.5-7.5h-48h-16c-4.687,0-8.5-3.813-8.5-8.5
	s3.813-8.5,8.5-8.5h128c4.687,0,8.5,3.813,8.5,8.5S324.187,223.999,319.5,223.999z M416,231.499c0,4.687-3.813,8.5-8.5,8.5
	s-8.5-3.813-8.5-8.5v-32c0-4.687,3.813-8.5,8.5-8.5s8.5,3.813,8.5,8.5V231.499z"/>
<g>
</g>
<g>
</g>
<g>
</g>
<g>
</g>
<g>
</g>
<g>
</g>
<g>
</g>
<g>
</g>
<g>
</g>
<g>
</g>
<g>
</g>
<g>
</g>
<g>
</g>
<g>
</g>
<g>
</g>
</svg>
