<?xml version="1.0" encoding="iso-8859-1"?>
<!-- Generator: Adobe Illustrator 17.1.0, SVG Export Plug-In . SVG Version: 6.00 Build 0)  -->
<!DOCTYPE svg PUBLIC "-//W3C//DTD SVG 1.1//EN" "http://www.w3.org/Graphics/SVG/1.1/DTD/svg11.dtd">
<svg version="1.1" id="Capa_1" xmlns="http://www.w3.org/2000/svg" xmlns:xlink="http://www.w3.org/1999/xlink" x="0px" y="0px"
	 viewBox="0 0 511.001 511.001" style="enable-background:new 0 0 511.001 511.001;" xml:space="preserve">
<g>
	<path d="M87.5,416c-1.97,0-3.91,0.8-5.3,2.2c-1.4,1.39-2.2,3.33-2.2,5.3s0.8,3.91,2.2,5.3c1.39,1.4,3.33,2.2,5.3,2.2
		c1.97,0,3.91-0.8,5.3-2.2c1.4-1.39,2.2-3.33,2.2-5.3s-0.8-3.91-2.2-5.3C91.41,416.8,89.47,416,87.5,416z"/>
	<path d="M498.197,338.197l-58.372,58.372C435.061,393.671,429.472,392,423.5,392s-11.561,1.671-16.324,4.569l-66.372-66.372
		c-0.083-0.083-0.171-0.154-0.257-0.232c1.601-3.211,2.453-6.771,2.453-10.465c0-6.278-2.445-12.18-6.884-16.615L319,285.769
		v-60.537l17.114-17.114c4.44-4.438,6.886-10.339,6.886-16.618c0-3.694-0.853-7.254-2.453-10.465
		c0.085-0.078,0.174-0.149,0.256-0.231l66.372-66.372C411.939,117.33,417.528,119,423.5,119c5.972,0,11.561-1.67,16.325-4.569
		l58.372,58.372c1.464,1.464,3.384,2.197,5.303,2.197s3.839-0.732,5.303-2.197c2.929-2.929,2.929-7.677,0-10.606l-58.372-58.372
		C453.33,99.061,455,93.472,455,87.5c0-17.369-14.131-31.5-31.5-31.5c-5.972,0-11.561,1.671-16.324,4.569L348.804,2.197
		c-2.929-2.929-7.678-2.929-10.606,0c-2.929,2.929-2.929,7.677,0,10.606l58.372,58.372C393.671,75.939,392,81.528,392,87.5
		c0,5.972,1.671,11.562,4.569,16.325l-66.372,66.372c-0.082,0.082-0.154,0.171-0.231,0.256c-3.211-1.601-6.771-2.453-10.465-2.453
		c-6.281,0-12.183,2.446-16.616,6.885L285.769,192h-60.537l-17.112-17.112C203.683,170.446,197.782,168,191.5,168
		c-3.695,0-7.255,0.853-10.466,2.453c-0.078-0.085-0.149-0.173-0.231-0.255l-66.372-66.372C117.33,99.062,119,93.472,119,87.5
		c0-5.972-1.671-11.561-4.569-16.325l58.372-58.372c2.929-2.929,2.929-7.677,0-10.606c-2.929-2.929-7.678-2.929-10.606,0
		l-58.372,58.372C99.061,57.671,93.472,56,87.5,56C70.131,56,56,70.131,56,87.5c0,5.972,1.671,11.561,4.569,16.325L2.197,162.197
		c-2.929,2.929-2.929,7.677,0,10.606C3.661,174.268,5.581,175,7.5,175s3.839-0.732,5.303-2.197l58.372-58.372
		C75.939,117.33,81.528,119,87.5,119c5.972,0,11.561-1.67,16.324-4.568l66.372,66.372c0.083,0.082,0.171,0.154,0.257,0.231
		c-1.601,3.211-2.453,6.771-2.453,10.465c0,6.278,2.445,12.18,6.884,16.616L192,225.232v60.537l-17.114,17.114
		C170.446,307.32,168,313.222,168,319.5c0,3.694,0.853,7.255,2.453,10.465c-0.085,0.078-0.174,0.149-0.256,0.232l-66.372,66.372
		C99.061,393.671,93.472,392,87.5,392s-11.561,1.671-16.325,4.569l-58.372-58.372c-2.929-2.929-7.678-2.929-10.606,0
		c-2.929,2.929-2.929,7.678,0,10.606l58.372,58.372C57.671,411.939,56,417.528,56,423.5c0,17.369,14.131,31.5,31.5,31.5
		c5.972,0,11.561-1.67,16.325-4.568l58.372,58.372c1.464,1.465,3.384,2.197,5.303,2.197c1.919,0,3.839-0.732,5.303-2.197
		c2.929-2.929,2.929-7.678,0-10.606l-58.372-58.372C117.33,435.062,119,429.472,119,423.5c0-5.972-1.671-11.561-4.569-16.325
		l66.372-66.372c0.082-0.083,0.154-0.171,0.231-0.256c3.211,1.601,6.771,2.453,10.465,2.453c6.281,0,12.183-2.446,16.616-6.884
		L225.232,319h60.537l17.112,17.113c4.436,4.441,10.338,6.887,16.619,6.887c3.695,0,7.255-0.853,10.466-2.452
		c0.078,0.085,0.149,0.173,0.231,0.256l66.372,66.372C393.671,411.939,392,417.528,392,423.5c0,5.972,1.671,11.562,4.569,16.325
		l-58.372,58.372c-2.929,2.929-2.929,7.678,0,10.606c1.464,1.465,3.384,2.197,5.303,2.197s3.839-0.732,5.303-2.197l58.372-58.372
		C411.939,453.33,417.528,455,423.5,455c17.369,0,31.5-14.131,31.5-31.5c0-5.972-1.671-11.561-4.569-16.324l58.372-58.372
		c2.929-2.929,2.929-7.678,0-10.606C505.875,335.269,501.126,335.269,498.197,338.197z M423.5,71c9.098,0,16.5,7.402,16.5,16.5
		c0,9.099-7.402,16.5-16.5,16.5S407,96.599,407,87.5C407,78.402,414.402,71,423.5,71z M71,87.5C71,78.402,78.402,71,87.5,71
		S104,78.402,104,87.5c0,9.099-7.402,16.5-16.5,16.5S71,96.599,71,87.5z M87.5,440c-9.098,0-16.5-7.401-16.5-16.5
		c0-9.098,7.402-16.5,16.5-16.5s16.5,7.402,16.5,16.5C104,432.599,96.598,440,87.5,440z M319.5,328c-2.271,0-4.404-0.883-6.009-2.49
		l-19.313-19.313c-1.406-1.407-3.314-2.197-5.303-2.197H263v-0.5c0-4.142-3.358-7.5-7.5-7.5s-7.5,3.358-7.5,7.5v0.5h-25.875
		c-1.989,0-3.897,0.791-5.303,2.197l-19.316,19.315c-1.602,1.604-3.735,2.487-6.006,2.487s-4.404-0.883-6.011-2.492
		c-1.605-1.604-2.489-3.738-2.489-6.008c0-2.27,0.884-4.403,2.491-6.009l19.313-19.313c1.407-1.407,2.197-3.314,2.197-5.304v-66.75
		c0-1.989-0.79-3.896-2.197-5.303l-19.314-19.314c-1.605-1.604-2.489-3.738-2.489-6.008c0-2.27,0.884-4.403,2.494-6.012
		c1.602-1.604,3.735-2.488,6.006-2.488s4.404,0.884,6.009,2.491l19.313,19.313c1.406,1.406,3.314,2.196,5.303,2.196H248v48.5
		c0,4.143,3.358,7.5,7.5,7.5s7.5-3.357,7.5-7.5V207h25.875c1.989,0,3.897-0.79,5.303-2.196l19.316-19.316
		c1.602-1.604,3.735-2.488,6.006-2.488s4.404,0.884,6.011,2.493c1.605,1.604,2.489,3.738,2.489,6.007c0,2.27-0.884,4.403-2.491,6.01
		l-19.313,19.313c-1.407,1.406-2.197,3.314-2.197,5.303v66.75c0,1.989,0.79,3.897,2.197,5.304l19.314,19.314
		c1.605,1.604,2.489,3.738,2.489,6.007c0,2.27-0.884,4.403-2.494,6.013C323.904,327.117,321.771,328,319.5,328z M423.5,440
		c-9.098,0-16.5-7.401-16.5-16.5c0-9.098,7.402-16.5,16.5-16.5s16.5,7.402,16.5,16.5C440,432.599,432.598,440,423.5,440z"/>
	<path d="M423.5,416c-1.98,0-3.91,0.8-5.3,2.2c-1.4,1.39-2.2,3.33-2.2,5.3s0.8,3.91,2.2,5.3c1.39,1.4,3.32,2.2,5.3,2.2
		s3.91-0.8,5.3-2.2c1.4-1.39,2.2-3.33,2.2-5.3s-0.8-3.91-2.2-5.3C427.41,416.8,425.48,416,423.5,416z"/>
	<path d="M423.5,95c1.98,0,3.91-0.8,5.3-2.2c1.4-1.39,2.2-3.33,2.2-5.3s-0.8-3.91-2.2-5.3c-1.39-1.4-3.32-2.2-5.3-2.2
		s-3.91,0.8-5.3,2.2c-1.4,1.39-2.2,3.33-2.2,5.3s0.8,3.91,2.2,5.3C419.59,94.2,421.52,95,423.5,95z"/>
	<path d="M87.5,80c-1.98,0-3.91,0.8-5.3,2.2c-1.4,1.39-2.2,3.33-2.2,5.3s0.8,3.91,2.2,5.3c1.39,1.4,3.32,2.2,5.3,2.2
		s3.91-0.8,5.3-2.2c1.4-1.39,2.2-3.33,2.2-5.3s-0.8-3.91-2.2-5.3C91.41,80.8,89.48,80,87.5,80z"/>
	<path d="M279.5,224c-4.142,0-7.5,3.358-7.5,7.5V272h-33v-40.5c0-4.142-3.358-7.5-7.5-7.5s-7.5,3.358-7.5,7.5v48
		c0,4.143,3.358,7.5,7.5,7.5h48c4.142,0,7.5-3.357,7.5-7.5v-48C287,227.359,283.642,224,279.5,224z"/>
</g>
<g>
</g>
<g>
</g>
<g>
</g>
<g>
</g>
<g>
</g>
<g>
</g>
<g>
</g>
<g>
</g>
<g>
</g>
<g>
</g>
<g>
</g>
<g>
</g>
<g>
</g>
<g>
</g>
<g>
</g>
</svg>
